<?xml version="1.0" encoding="UTF-8" standalone="no"?>
<svg
   xmlns:dc="http://purl.org/dc/elements/1.1/"
   xmlns:cc="http://creativecommons.org/ns#"
   xmlns:rdf="http://www.w3.org/1999/02/22-rdf-syntax-ns#"
   xmlns:svg="http://www.w3.org/2000/svg"
   xmlns="http://www.w3.org/2000/svg"
   xmlns:sodipodi="http://sodipodi.sourceforge.net/DTD/sodipodi-0.dtd"
   xmlns:inkscape="http://www.inkscape.org/namespaces/inkscape"
   version="1.1"
   id="Capa_1"
   x="0px"
   y="0px"
   width="48.792px"
   height="48.793px"
   viewBox="0 0 48.792 48.793"
   style="enable-background:new 0 0 48.792 48.793;"
   xml:space="preserve"
   sodipodi:docname="language.svg"
   inkscape:version="1.0.1 (3bc2e813f5, 2020-09-07)"><metadata
   id="metadata41"><rdf:RDF><cc:Work
       rdf:about=""><dc:format>image/svg+xml</dc:format><dc:type
         rdf:resource="http://purl.org/dc/dcmitype/StillImage" /></cc:Work></rdf:RDF></metadata><defs
   id="defs39" /><sodipodi:namedview
   pagecolor="#ffffff"
   bordercolor="#666666"
   borderopacity="1"
   objecttolerance="10"
   gridtolerance="10"
   guidetolerance="10"
   inkscape:pageopacity="0"
   inkscape:pageshadow="2"
   inkscape:window-width="1920"
   inkscape:window-height="1026"
   id="namedview37"
   showgrid="false"
   inkscape:zoom="17.236079"
   inkscape:cx="24.396"
   inkscape:cy="24.3965"
   inkscape:window-x="0"
   inkscape:window-y="0"
   inkscape:window-maximized="1"
   inkscape:current-layer="Capa_1" />
<g
   id="g4">
	<path
   d="M48.761,24c-0.035-2.238-0.371-4.404-0.975-6.46c-0.222-0.759-0.479-1.501-0.771-2.228   c-0.593-1.475-1.325-2.879-2.183-4.195c-0.39-0.597-0.804-1.175-1.24-1.734c-1.201-1.534-2.58-2.92-4.107-4.129   c-0.523-0.413-1.062-0.809-1.617-1.179C34.005,1.503,29.375,0,24.395,0c-4.407,0-8.54,1.182-12.111,3.236   c-0.587,0.337-1.159,0.696-1.714,1.079C9.002,5.4,7.564,6.663,6.291,8.076c-0.492,0.546-0.961,1.112-1.402,1.7   c-1.221,1.628-2.239,3.413-3.026,5.318c-0.302,0.729-0.567,1.474-0.798,2.235c-0.619,2.045-0.971,4.202-1.026,6.433   c-0.005,0.204-0.016,0.406-0.016,0.611c0,0.745,0.039,1.48,0.104,2.208c0.246,2.717,0.939,5.304,2.005,7.69   c0.554,1.24,1.204,2.426,1.948,3.547c4.252,6.402,11.446,10.68,19.638,10.906c0.003,0.037,0.006,0.063,0.006,0.068l0.591-0.051   c0.027,0,0.054,0.003,0.081,0.003c8.055,0,15.206-3.929,19.646-9.968c0.775-1.057,1.467-2.178,2.066-3.354   c1.348-2.636,2.232-5.545,2.539-8.623c0.08-0.799,0.122-1.608,0.122-2.429C48.77,24.249,48.762,24.125,48.761,24z M19.719,2.5   c0.183-0.039,0.367-0.074,0.552-0.109c-0.771,1.354-1.814,3.336-2.853,5.767c-0.736-0.353-1.434-0.738-2.047-1.179   c2.34-2.757,4.316-4.418,4.364-4.458L19.719,2.5z M14.854,15.63c-1.471-0.609-2.809-1.345-3.986-2.182   c1.006-1.83,2.146-3.495,3.268-4.943c0.764,0.561,1.614,1.062,2.534,1.497C16.004,11.726,15.373,13.619,14.854,15.63z    M22.94,19.523c-0.032,1.325-0.062,2.688-0.084,4.079c-0.007,0.412-0.012,0.823-0.016,1.235c-2.542-0.112-4.975-0.489-7.251-1.075   c0.094-1.873,0.352-3.716,0.717-5.492C18.367,18.92,20.599,19.348,22.94,19.523z M14.398,17.583   c-0.381,1.807-0.656,3.688-0.777,5.613c-2.01-0.655-3.862-1.49-5.523-2.467c0.398-1.93,1.057-3.777,1.867-5.507   C11.287,16.134,12.775,16.929,14.398,17.583z M13.56,25.255c-0.007,2.181,0.171,4.283,0.488,6.267   c-2.059-0.537-4.001-1.228-5.799-2.051c-0.382-1.636-0.598-3.344-0.568-5.104c0.009-0.524,0.047-1.044,0.099-1.561   C9.541,23.781,11.478,24.609,13.56,25.255z M14.448,33.671c0.504,2.369,1.173,4.519,1.872,6.406   c-1.254-0.242-2.477-0.534-3.662-0.875c-1.395-2.076-2.754-4.542-3.699-7.277C10.688,32.626,12.524,33.211,14.448,33.671z    M16.175,32.018c-0.36-1.965-0.594-4.051-0.622-6.215c2.3,0.564,4.738,0.926,7.277,1.035c0,2.033,0.028,4.043,0.075,5.973   C20.578,32.725,18.325,32.452,16.175,32.018z M22.961,34.814c0.069,2.183,0.158,4.228,0.251,6.043   c-1.563-0.059-3.093-0.192-4.586-0.4c-0.725-1.82-1.444-3.958-2.006-6.322C18.66,34.507,20.781,34.738,22.961,34.814z    M22.994,17.523c-2.211-0.17-4.312-0.577-6.238-1.192c0.508-1.986,1.131-3.861,1.79-5.568c1.438,0.491,2.997,0.833,4.643,0.99   C23.119,13.532,23.052,15.47,22.994,17.523z M15.41,3.901c-0.488,0.516-1.011,1.094-1.552,1.729   c-0.202-0.216-0.414-0.428-0.588-0.655C13.959,4.577,14.676,4.224,15.41,3.901z M11.6,6.036c0.296,0.396,0.63,0.777,0.991,1.144   c-1.137,1.456-2.292,3.13-3.327,4.977c-0.75-0.692-1.408-1.431-1.946-2.214C8.57,8.462,10.009,7.149,11.6,6.036z M6.057,11.58   c0.646,0.846,1.409,1.641,2.267,2.382c-0.845,1.749-1.556,3.623-2.025,5.598c-1.124-0.809-2.132-1.688-2.997-2.634   C3.98,15.01,4.912,13.216,6.057,11.58z M2.062,25.66c-0.025-0.426-0.04-0.854-0.04-1.286c0-1.826,0.226-3.6,0.64-5.3   c0.962,0.933,2.05,1.798,3.238,2.591c-0.124,0.875-0.204,1.765-0.219,2.669c-0.022,1.365,0.09,2.693,0.298,3.984   C4.551,27.516,3.234,26.629,2.062,25.66z M5.518,36.359c-1.524-2.393-2.605-5.09-3.13-7.981c1.267,0.897,2.651,1.718,4.13,2.451   c0.729,2.716,1.865,5.206,3.13,7.386C8.197,37.668,6.814,37.048,5.518,36.359z M8.186,39.771c1.02,0.41,2.081,0.775,3.165,1.112   c0.843,1.209,1.686,2.278,2.455,3.183C11.712,42.936,9.814,41.484,8.186,39.771z M18.331,45.904   c-0.263-0.236-1.902-1.748-3.821-4.168c0.875,0.201,1.768,0.373,2.673,0.522c0.672,1.577,1.318,2.869,1.835,3.826   C18.788,46.027,18.558,45.968,18.331,45.904z M21.597,46.564c-0.346-0.571-1.15-1.969-2.063-3.977   c1.242,0.143,2.504,0.238,3.788,0.282c0.089,1.553,0.176,2.862,0.245,3.854C22.903,46.701,22.246,46.646,21.597,46.564z    M23.269,9.751c-1.412-0.14-2.74-0.435-3.972-0.84c1.426-3.335,2.859-5.811,3.497-6.853c0.284-0.02,0.572-0.025,0.858-0.035   C23.57,3.46,23.42,6.192,23.269,9.751z M45.55,17.105c-0.77,0.816-1.647,1.582-2.612,2.295c-0.401-1.639-0.968-3.209-1.638-4.694   c0.806-0.611,1.547-1.266,2.201-1.963C44.335,14.108,45.023,15.57,45.55,17.105z M34.443,16.11   c-0.492-1.993-1.096-3.878-1.742-5.602c1.038-0.402,1.993-0.892,2.868-1.444c1.108,1.481,2.218,3.167,3.177,5.007   C37.458,14.872,36.015,15.559,34.443,16.11z M39.603,15.859c0.659,1.501,1.195,3.087,1.546,4.731   c-1.675,1.011-3.554,1.873-5.596,2.552c-0.112-1.737-0.349-3.44-0.675-5.083C36.594,17.47,38.179,16.727,39.603,15.859z    M34.742,33.615c1.977-0.48,3.854-1.096,5.625-1.829c-0.988,2.901-2.445,5.507-3.925,7.67c-1.18,0.312-2.399,0.567-3.644,0.782   C33.524,38.297,34.221,36.072,34.742,33.615z M35.134,31.482c0.316-1.985,0.494-4.092,0.482-6.275   c2.118-0.669,4.086-1.524,5.865-2.533c0.061,0.56,0.104,1.123,0.112,1.693c0.028,1.719-0.179,3.387-0.544,4.986   C39.224,30.21,37.238,30.925,35.134,31.482z M38.275,6.844c1.539,1.221,2.916,2.636,4.088,4.214   c-0.568,0.651-1.225,1.265-1.947,1.84c-0.979-1.851-2.09-3.541-3.205-5.03C37.591,7.542,37.951,7.201,38.275,6.844z M36.673,5.683   c-0.209,0.22-0.447,0.424-0.684,0.63c-0.607-0.74-1.197-1.413-1.753-2.014C35.08,4.713,35.896,5.17,36.673,5.683z M29.684,2.643   c0.532,0.462,2.487,2.22,4.665,4.868c-0.725,0.438-1.518,0.831-2.375,1.157C30.89,6.06,29.778,3.927,28.957,2.48   C29.201,2.531,29.443,2.585,29.684,2.643z M25.656,2.046c0.252,0.015,0.504,0.03,0.754,0.053c0.672,1.1,2.166,3.691,3.625,7.168   c-1.48,0.372-3.08,0.586-4.761,0.586c-0.003,0-0.005,0-0.007,0C25.42,6.216,25.574,3.448,25.656,2.046z M25.185,11.851   c0.03,0,0.06,0.002,0.089,0.002c1.94,0,3.792-0.264,5.502-0.724c0.646,1.713,1.252,3.589,1.738,5.568   c-2.242,0.59-4.683,0.921-7.24,0.921c-0.095,0-0.188-0.006-0.282-0.007C25.05,15.563,25.117,13.626,25.185,11.851z M24.856,23.635   c0.022-1.373,0.051-2.717,0.083-4.024c0.112,0.001,0.223,0.008,0.335,0.008c2.701,0,5.283-0.35,7.67-0.977   c0.324,1.648,0.556,3.352,0.644,5.083c-2.717,0.712-5.664,1.115-8.747,1.143C24.844,24.457,24.849,24.045,24.856,23.635z    M24.831,26.868c3.084-0.025,6.042-0.411,8.793-1.101c-0.025,2.164-0.256,4.25-0.615,6.215c-2.567,0.529-5.285,0.826-8.102,0.852   C24.859,30.906,24.831,28.9,24.831,26.868z M24.962,34.826c2.631-0.026,5.174-0.291,7.607-0.746   c-0.575,2.438-1.319,4.633-2.063,6.492c-1.721,0.205-3.484,0.322-5.29,0.332C25.123,39.083,25.033,37.027,24.962,34.826z    M27.628,46.486c-0.678,0.1-1.364,0.166-2.061,0.201c-0.068-0.963-0.154-2.25-0.243-3.785c1.45-0.01,2.875-0.086,4.275-0.221   C28.744,44.557,27.989,45.883,27.628,46.486z M31.192,45.675c-0.313,0.101-0.636,0.187-0.956,0.272   c0.488-0.912,1.086-2.113,1.703-3.553c0.9-0.133,1.793-0.281,2.665-0.463C33.08,43.834,31.751,45.146,31.192,45.675z    M35.948,43.495c0.576-0.701,1.181-1.483,1.79-2.343c0.734-0.209,1.46-0.432,2.167-0.676   C38.708,41.628,37.375,42.629,35.948,43.495z M42.682,37.242c-1.033,0.475-2.122,0.896-3.239,1.287   c1.364-2.299,2.598-4.953,3.359-7.866c1.258-0.642,2.465-1.328,3.566-2.091C45.763,31.751,44.482,34.691,42.682,37.242z    M46.714,25.869c-1.032,0.83-2.17,1.599-3.394,2.303c0.192-1.244,0.296-2.523,0.273-3.838c-0.017-0.957-0.104-1.896-0.242-2.82   c1.022-0.699,1.97-1.45,2.819-2.254c0.387,1.644,0.598,3.354,0.598,5.114C46.77,24.876,46.748,25.374,46.714,25.869z"
   id="path2"
   style="fill:#ffffff" />
</g>
<g
   id="g6">
</g>
<g
   id="g8">
</g>
<g
   id="g10">
</g>
<g
   id="g12">
</g>
<g
   id="g14">
</g>
<g
   id="g16">
</g>
<g
   id="g18">
</g>
<g
   id="g20">
</g>
<g
   id="g22">
</g>
<g
   id="g24">
</g>
<g
   id="g26">
</g>
<g
   id="g28">
</g>
<g
   id="g30">
</g>
<g
   id="g32">
</g>
<g
   id="g34">
</g>
</svg>
